<svg width="24" height="24" viewBox="0 0 24 24" fill="none" xmlns="http://www.w3.org/2000/svg">
<path d="M11.999 3C12.6203 3 13.125 3.50371 13.125 4.125V10.874H19.875C20.496 10.8743 21 11.3789 21 12C20.9997 12.6209 20.4959 13.1247 19.875 13.125H13.125V19.874C13.1248 20.4952 12.6202 20.999 11.999 20.999C11.378 20.9989 10.8742 20.4951 10.874 19.874V13.125H4.125C3.50399 13.1249 3.00026 12.621 3 12C3 11.3788 3.50382 10.8742 4.125 10.874H10.874V4.125C10.874 3.50382 11.3779 3.00017 11.999 3Z" fill="#108194"/>
</svg>
