<svg width="24" height="24" viewBox="0 0 24 24" fill="none" xmlns="http://www.w3.org/2000/svg">
<path d="M12.002 1C18.0767 1.00063 23.002 5.92637 23.002 12.001C23.0017 18.0754 18.0765 22.9994 12.002 23C5.92682 23 1.00124 18.0757 1.00098 12.001C1.00098 5.92598 5.92666 1 12.002 1ZM12.002 3.00098C7.03126 3.00098 3.00195 7.03052 3.00195 12.001C3.00222 16.9712 7.03142 21.001 12.002 21.001C16.9719 21.0003 21.0017 16.9708 21.002 12.001C21.002 7.03091 16.9721 3.00161 12.002 3.00098ZM12.0117 15C12.5635 15.0006 13.0107 15.4491 13.0107 16.001C13.0106 16.5527 12.5634 17.0003 12.0117 17.001H12.001C11.4488 17.001 11.0012 16.5531 11.001 16.001C11.001 15.4487 11.4487 15 12.001 15H12.0117ZM12.001 7C12.5531 7.00026 13.002 7.44887 13.002 8.00098V12.001C13.0017 12.5529 12.5529 12.9997 12.001 13C11.4489 13 11.0012 12.553 11.001 12.001V8.00098C11.001 7.44872 11.4487 7.00003 12.001 7Z" fill="#108194"/>
</svg>
