<svg width="24" height="24" viewBox="0 0 24 24" fill="none" xmlns="http://www.w3.org/2000/svg">
<path d="M1 12C1 5.92487 5.92487 1 12 1V1C18.0751 1 23 5.92487 23 12V12C23 18.0751 18.0751 23 12 23V23C5.92487 23 1 18.0751 1 12V12Z" fill="#108194"/>
<path d="M11.192 13.968L10.856 8.064L10.776 5.824H13.144L13.064 8.064L12.728 13.968H11.192ZM11.96 18.224C11.5333 18.224 11.1813 18.0747 10.904 17.776C10.6373 17.4773 10.504 17.1147 10.504 16.688C10.504 16.24 10.6373 15.872 10.904 15.584C11.1813 15.296 11.5333 15.152 11.96 15.152C12.3867 15.152 12.7333 15.296 13 15.584C13.2773 15.872 13.416 16.24 13.416 16.688C13.416 17.1147 13.2773 17.4773 13 17.776C12.7333 18.0747 12.3867 18.224 11.96 18.224Z" fill="white"/>
</svg>
