<svg width="24" height="24" viewBox="0 0 24 24" fill="none" xmlns="http://www.w3.org/2000/svg">
<path d="M13.9998 17.0006C14.552 17.0007 14.9995 17.448 14.9995 18.0002C14.9995 18.5525 14.552 18.9998 13.9998 18.9999H9.99959C9.44731 18.9999 8.99991 18.5525 8.99991 18.0002C8.99991 17.448 9.44731 17.0006 9.99959 17.0006H13.9998Z" fill="#108194"/>
<path d="M13.9998 13.0004C14.552 13.0005 14.9995 13.4478 14.9995 14C14.9995 14.5523 14.552 14.9996 13.9998 14.9997H9.99959C9.44731 14.9997 8.99991 14.5523 8.99991 14C8.99991 13.4478 9.44731 13.0004 9.99959 13.0004H13.9998Z" fill="#108194"/>
<path d="M13.9998 9.00015C14.5519 9.00026 14.9993 9.44779 14.9995 9.99984C14.9995 10.5521 14.552 10.9994 13.9998 10.9995H9.99959C9.44731 10.9995 8.99991 10.5521 8.99991 9.99984C9.00011 9.44772 9.44743 9.00015 9.99959 9.00015H13.9998Z" fill="#108194"/>
<path d="M13.9998 4.99996C14.5519 5.00006 14.9993 5.44759 14.9995 5.99964C14.9995 6.55186 14.552 6.99921 13.9998 6.99932H9.99959C9.44731 6.99932 8.99991 6.55192 8.99991 5.99964C9.00011 5.44752 9.44743 4.99996 9.99959 4.99996H13.9998Z" fill="#108194"/>
<path fill-rule="evenodd" clip-rule="evenodd" d="M16.0006 0.999756C16.7958 0.99995 17.5593 1.31708 18.1217 1.87924C18.6837 2.44163 19.001 3.2052 19.0011 4.00027V8.00047H19.9994C20.795 8.00047 21.5592 8.31588 22.1219 8.87849C22.6843 9.44094 22.9997 10.2041 22.9999 10.9995V19.9996C22.9999 20.7953 22.6845 21.5595 22.1219 22.1221C21.5593 22.6847 20.795 23.0001 19.9994 23.0001H18.0161C18.0112 23.0002 18.0064 23.0016 18.0015 23.0016H6.00086C5.99621 23.0016 5.99084 23.0002 5.9862 23.0001H4.00003C3.20495 23 2.44139 22.6841 1.879 22.1221C1.31673 21.5598 0.999811 20.7963 0.999512 20.0011V14C0.999679 13.2046 1.31654 12.4415 1.879 11.879C2.44146 11.3165 3.20461 11.0012 4.00003 11.001H5.00118V4.00027C5.00134 3.20485 5.31674 2.4417 5.8792 1.87924C6.44166 1.31678 7.20481 0.999924 8.00023 0.999756H16.0006ZM4.00003 13.0004C3.73504 13.0005 3.48089 13.1061 3.29351 13.2935C3.10612 13.4809 3.00051 13.735 3.00034 14V20.0011C3.00064 20.2658 3.10631 20.5203 3.29351 20.7076C3.48082 20.8945 3.73539 21.0006 4.00003 21.0008H5.00118V13.0004H4.00003ZM8.00023 3.00059C7.73524 3.00076 7.48109 3.10636 7.29371 3.29375C7.10632 3.48114 7.00071 3.73528 7.00054 4.00027V21.0008H17.0003V4.00027C17.0001 3.73577 16.8954 3.48104 16.7086 3.29375C16.5213 3.10639 16.2656 3.00078 16.0006 3.00059H8.00023ZM19.0011 21.0008H19.9994C20.2646 21.0008 20.5198 20.8951 20.7073 20.7076C20.8949 20.5201 21.0005 20.2648 21.0005 19.9996V10.9995C21.0003 10.7346 20.8947 10.4804 20.7073 10.293C20.5198 10.1055 20.2646 9.99984 19.9994 9.99984H19.0011V21.0008Z" fill="#108194"/>
</svg>
