<svg width="24" height="24" viewBox="0 0 24 24" fill="none" xmlns="http://www.w3.org/2000/svg">
<path d="M12 4.99987C12.5518 5.00026 12.9994 5.44764 12.9996 5.99947V11.38L16.4469 13.1051C16.9401 13.3522 17.1403 13.9527 16.8939 14.4462C16.647 14.9397 16.0465 15.1396 15.5528 14.8933L11.553 12.8926C11.2143 12.7232 11.0004 12.3772 11.0004 11.9985V5.99947C11.0006 5.4474 11.4479 4.99987 12 4.99987Z" fill="#108194"/>
<path fill-rule="evenodd" clip-rule="evenodd" d="M12 1C18.0742 1.0004 22.9999 5.92572 23 12C22.9996 18.074 18.074 22.9996 12 23C5.92572 22.9999 1.0004 18.0742 1 12C1.00013 5.92556 5.92556 1.00013 12 1ZM12 3.00067C7.03004 3.00079 3.00079 7.03004 3.00067 12C3.00106 16.9697 7.0302 20.9992 12 20.9993C16.9696 20.9989 20.9989 16.9696 20.9993 12C20.9992 7.0302 16.9697 3.00106 12 3.00067Z" fill="#108194"/>
</svg>
