<svg width="16" height="16" viewBox="0 0 16 16" fill="none" xmlns="http://www.w3.org/2000/svg">
<g clip-path="url(#clip0_2687_19964)">
<path d="M10 0.666016C10.1768 0.666016 10.3463 0.736304 10.4714 0.861328L13.8047 4.19466C13.9297 4.31969 14 4.4892 14 4.66602V13.3327C14 13.8631 13.7891 14.3717 13.4141 14.7467C13.039 15.1218 12.5304 15.3327 12 15.3327H4C3.46957 15.3327 2.96101 15.1218 2.58594 14.7467C2.21086 14.3717 2 13.8631 2 13.3327V2.66602C2 2.13558 2.21086 1.62703 2.58594 1.25195C2.96101 0.87688 3.46957 0.666016 4 0.666016H10ZM4 1.99935C3.82319 1.99935 3.65367 2.06964 3.52865 2.19466C3.40362 2.31969 3.33333 2.4892 3.33333 2.66602V13.3327C3.33333 13.5095 3.40362 13.679 3.52865 13.804C3.65367 13.9291 3.82319 13.9993 4 13.9993H12C12.1768 13.9993 12.3463 13.9291 12.4714 13.804C12.5964 13.679 12.6667 13.5095 12.6667 13.3327V5.99935H10.6667C10.1362 5.99935 9.62768 5.78848 9.2526 5.41341C8.87753 5.03834 8.66667 4.52978 8.66667 3.99935V1.99935H4ZM10.6667 10.666C11.0349 10.666 11.3333 10.9645 11.3333 11.3327C11.3333 11.7009 11.0349 11.9993 10.6667 11.9993H5.33333C4.96514 11.9993 4.66667 11.7009 4.66667 11.3327C4.66667 10.9645 4.96514 10.666 5.33333 10.666H10.6667ZM10.6667 7.99935C11.0349 7.99935 11.3333 8.29783 11.3333 8.66602C11.3333 9.03421 11.0349 9.33268 10.6667 9.33268H5.33333C4.96514 9.33268 4.66667 9.03421 4.66667 8.66602C4.66667 8.29783 4.96514 7.99935 5.33333 7.99935H10.6667ZM6.66667 5.33268C7.03486 5.33268 7.33333 5.63116 7.33333 5.99935C7.33333 6.36754 7.03486 6.66602 6.66667 6.66602H5.33333C4.96514 6.66602 4.66667 6.36754 4.66667 5.99935C4.66667 5.63116 4.96514 5.33268 5.33333 5.33268H6.66667ZM10 3.99935C10 4.17616 10.0703 4.34568 10.1953 4.4707C10.3203 4.59573 10.4899 4.66602 10.6667 4.66602H12.3906L10 2.27539V3.99935Z" fill="white"/>
</g>
<defs>
<clipPath id="clip0_2687_19964">
<rect width="16" height="16" fill="white"/>
</clipPath>
</defs>
</svg>
