<svg width="16" height="27" viewBox="0 0 16 27" fill="none" xmlns="http://www.w3.org/2000/svg">
<path d="M3.52709 16.3976C3.78733 16.1341 4.21047 16.1343 4.47084 16.3976L7.9982 19.9704L11.5282 16.3976C11.7884 16.1346 12.2104 16.1346 12.4706 16.3976C12.731 16.6612 12.731 17.0896 12.4706 17.3532L8.47008 21.4024C8.20972 21.6659 7.78794 21.666 7.52763 21.4024L3.52709 17.3532C3.26708 17.0896 3.26695 16.6612 3.52709 16.3976Z" fill="#9CA3AF"/>
<path d="M7.63191 5.51171C7.89044 5.3387 8.24218 5.3674 8.47008 5.5975L12.4706 9.64805C12.7307 9.91157 12.7306 10.3387 12.4706 10.6023C12.2103 10.8658 11.7885 10.8657 11.5282 10.6023L7.9982 7.02951L4.47084 10.6023C4.21049 10.8658 3.78742 10.8659 3.52709 10.6023C3.26753 10.3387 3.26728 9.91145 3.52709 9.64805L7.52763 5.5975L7.63191 5.51171Z" fill="#9CA3AF"/>
</svg>
