<svg width="24" height="24" viewBox="0 0 24 24" fill="none" xmlns="http://www.w3.org/2000/svg">
<path d="M14.294 8.294C14.6845 7.90348 15.317 7.90348 15.7076 8.294C16.0975 8.68457 16.0979 9.31723 15.7076 9.70756L13.4138 12.0002L15.7076 14.294C16.0975 14.6846 16.0979 15.3172 15.7076 15.7076C15.3172 16.0979 14.6846 16.0975 14.294 15.7076L12.0002 13.4138L9.70756 15.7076C9.31723 16.0979 8.68457 16.0975 8.294 15.7076C7.90348 15.317 7.90348 14.6845 8.294 14.294L10.5866 12.0002L8.294 9.70756C7.90348 9.31704 7.90348 8.68453 8.294 8.294C8.68453 7.90348 9.31704 7.90348 9.70756 8.294L12.0002 10.5866L14.294 8.294Z" fill="#EF5350"/>
<path fill-rule="evenodd" clip-rule="evenodd" d="M12.0014 1C18.0759 1.00053 23.0002 5.92558 23.0004 12.0002C23.0002 18.0748 18.0759 22.9987 12.0014 22.9992C5.92637 22.9992 1.00021 18.0751 1 12.0002C1.00022 5.92525 5.92637 1 12.0014 1ZM12.0014 2.99961C7.03094 2.99961 3.001 7.02982 3.00078 12.0002C3.00099 16.9706 7.03094 20.9996 12.0014 20.9996C16.9714 20.9991 21.0006 16.9703 21.0008 12.0002C21.0006 7.03015 16.9713 3.00014 12.0014 2.99961Z" fill="#EF5350"/>
</svg>
