<svg width="24" height="24" viewBox="0 0 24 24" fill="none" xmlns="http://www.w3.org/2000/svg">
<path d="M16.5146 6.45277C17.0981 6.51206 17.5536 7.00506 17.5537 7.60414C17.5537 8.24316 17.0355 8.76122 16.3965 8.76136C15.7972 8.76136 15.3043 8.30594 15.2451 7.7223L15.2393 7.60414L15.2451 7.48597C15.3044 6.90244 15.7973 6.44691 16.3965 6.44691L16.5146 6.45277Z" fill="#108194"/>
<path fill-rule="evenodd" clip-rule="evenodd" d="M11.71 2.5807C13.0609 1.73331 14.6595 1.36939 16.2441 1.54847C17.8288 1.72763 19.3059 2.43938 20.4336 3.56703C21.5613 4.69472 22.273 6.17179 22.4521 7.75648C22.6313 9.3411 22.2673 10.9397 21.4199 12.2907C20.5724 13.6416 19.2909 14.6656 17.7861 15.194C16.4156 15.6751 14.9334 15.7181 13.542 15.3258L13.0283 15.8395C12.5356 16.3324 11.8669 16.6097 11.1699 16.61H11.001C10.9177 16.61 10.8373 16.643 10.7783 16.7018C10.7194 16.7607 10.6866 16.8411 10.6865 16.9244V17.9059C10.6864 18.3427 10.5129 18.762 10.2041 19.0709C9.89514 19.3799 9.47502 19.5533 9.03809 19.5534H8.05762C7.97432 19.5534 7.89391 19.5863 7.83496 19.6452C7.77601 19.7041 7.74318 19.7844 7.74316 19.8678V20.8493C7.74306 21.286 7.56956 21.7054 7.26074 22.0143C6.95188 22.3232 6.53248 22.4965 6.0957 22.4967H3.15234C2.71554 22.4967 2.29628 22.323 1.9873 22.0143C1.67838 21.7054 1.50401 21.2861 1.50391 20.8493V18.7174C1.50417 18.0204 1.78148 17.3518 2.27441 16.859L8.6748 10.4586C8.2825 9.06718 8.32552 7.58505 8.80664 6.21449C9.33498 4.70973 10.359 3.42825 11.71 2.5807ZM16.0947 2.87367C14.81 2.72846 13.5132 3.02352 12.418 3.71058C11.323 4.39767 10.4937 5.4362 10.0654 6.65589C9.63711 7.87586 9.63521 9.20539 10.0605 10.4264C10.1445 10.6678 10.083 10.936 9.90234 11.1168L3.2168 17.8024C2.97403 18.0452 2.83798 18.375 2.83789 18.7184V20.8493C2.838 20.9324 2.87089 21.0121 2.92969 21.0709C2.98865 21.1299 3.06898 21.1637 3.15234 21.1637H6.0957C6.17886 21.1635 6.25857 21.1297 6.31738 21.0709C6.37616 21.0121 6.41005 20.9324 6.41016 20.8493V19.8678C6.41018 19.4308 6.58358 19.0118 6.89258 18.7028C7.20157 18.3939 7.6207 18.2203 8.05762 18.2203H9.03809C9.1214 18.2203 9.20182 18.1865 9.26074 18.1276C9.31948 18.0687 9.35245 17.9891 9.35254 17.9059V16.9244C9.35257 16.4875 9.52695 16.0684 9.83594 15.7594C10.1449 15.4506 10.5641 15.277 11.001 15.277H11.1689C11.5124 15.2769 11.8421 15.1399 12.085 14.8971L12.8838 14.0983C13.0645 13.9177 13.3329 13.8562 13.5742 13.9401C14.7952 14.3654 16.1248 14.3635 17.3447 13.9352C18.5645 13.5069 19.603 12.6777 20.29 11.5827C20.9771 10.4874 21.2731 9.19063 21.1279 7.90589C20.9826 6.62129 20.4053 5.42357 19.4912 4.50941C18.5771 3.5953 17.3793 3.01896 16.0947 2.87367Z" fill="#108194"/>
<path d="M16.5146 6.45277C17.0981 6.51206 17.5536 7.00506 17.5537 7.60414C17.5537 8.24316 17.0355 8.76122 16.3965 8.76136C15.7972 8.76136 15.3043 8.30594 15.2451 7.7223L15.2393 7.60414L15.2451 7.48597C15.3044 6.90244 15.7973 6.44691 16.3965 6.44691L16.5146 6.45277Z" stroke="#108194" stroke-width="0.5" stroke-linecap="round" stroke-linejoin="round"/>
<path fill-rule="evenodd" clip-rule="evenodd" d="M11.71 2.5807C13.0609 1.73331 14.6595 1.36939 16.2441 1.54847C17.8288 1.72763 19.3059 2.43938 20.4336 3.56703C21.5613 4.69472 22.273 6.17179 22.4521 7.75648C22.6313 9.3411 22.2673 10.9397 21.4199 12.2907C20.5724 13.6416 19.2909 14.6656 17.7861 15.194C16.4156 15.6751 14.9334 15.7181 13.542 15.3258L13.0283 15.8395C12.5356 16.3324 11.8669 16.6097 11.1699 16.61H11.001C10.9177 16.61 10.8373 16.643 10.7783 16.7018C10.7194 16.7607 10.6866 16.8411 10.6865 16.9244V17.9059C10.6864 18.3427 10.5129 18.762 10.2041 19.0709C9.89514 19.3799 9.47502 19.5533 9.03809 19.5534H8.05762C7.97432 19.5534 7.89391 19.5863 7.83496 19.6452C7.77601 19.7041 7.74318 19.7844 7.74316 19.8678V20.8493C7.74306 21.286 7.56956 21.7054 7.26074 22.0143C6.95188 22.3232 6.53248 22.4965 6.0957 22.4967H3.15234C2.71554 22.4967 2.29628 22.323 1.9873 22.0143C1.67838 21.7054 1.50401 21.2861 1.50391 20.8493V18.7174C1.50417 18.0204 1.78148 17.3518 2.27441 16.859L8.6748 10.4586C8.2825 9.06718 8.32552 7.58505 8.80664 6.21449C9.33498 4.70973 10.359 3.42825 11.71 2.5807ZM16.0947 2.87367C14.81 2.72846 13.5132 3.02352 12.418 3.71058C11.323 4.39767 10.4937 5.4362 10.0654 6.65589C9.63711 7.87586 9.63521 9.20539 10.0605 10.4264C10.1445 10.6678 10.083 10.936 9.90234 11.1168L3.2168 17.8024C2.97403 18.0452 2.83798 18.375 2.83789 18.7184V20.8493C2.838 20.9324 2.87089 21.0121 2.92969 21.0709C2.98865 21.1299 3.06898 21.1637 3.15234 21.1637H6.0957C6.17886 21.1635 6.25857 21.1297 6.31738 21.0709C6.37616 21.0121 6.41005 20.9324 6.41016 20.8493V19.8678C6.41018 19.4308 6.58358 19.0118 6.89258 18.7028C7.20157 18.3939 7.6207 18.2203 8.05762 18.2203H9.03809C9.1214 18.2203 9.20182 18.1865 9.26074 18.1276C9.31948 18.0687 9.35245 17.9891 9.35254 17.9059V16.9244C9.35257 16.4875 9.52695 16.0684 9.83594 15.7594C10.1449 15.4506 10.5641 15.277 11.001 15.277H11.1689C11.5124 15.2769 11.8421 15.1399 12.085 14.8971L12.8838 14.0983C13.0645 13.9177 13.3329 13.8562 13.5742 13.9401C14.7952 14.3654 16.1248 14.3635 17.3447 13.9352C18.5645 13.5069 19.603 12.6777 20.29 11.5827C20.9771 10.4874 21.2731 9.19063 21.1279 7.90589C20.9826 6.62129 20.4053 5.42357 19.4912 4.50941C18.5771 3.5953 17.3793 3.01896 16.0947 2.87367Z" stroke="#108194" stroke-width="0.5" stroke-linecap="round" stroke-linejoin="round"/>
</svg>
