<svg width="28" height="28" viewBox="0 0 28 28" fill="none" xmlns="http://www.w3.org/2000/svg">
<path d="M14.0013 16.334C15.5484 16.334 17.0317 16.949 18.1257 18.043C19.2196 19.1369 19.8346 20.6202 19.8346 22.1673V24.5007C19.8346 25.145 19.3123 25.6673 18.668 25.6673C18.0236 25.6673 17.5013 25.145 17.5013 24.5007V22.1673C17.5013 21.2391 17.1323 20.3491 16.4759 19.6927C15.8195 19.0363 14.9296 18.6673 14.0013 18.6673H7.0013C6.07304 18.6673 5.18307 19.0363 4.52669 19.6927C3.87032 20.3491 3.5013 21.2391 3.5013 22.1673V24.5007C3.5013 25.145 2.97897 25.6673 2.33464 25.6673C1.6903 25.6673 1.16797 25.145 1.16797 24.5007V22.1673C1.16797 20.6202 1.78299 19.1369 2.87695 18.043C3.97091 16.949 5.45421 16.334 7.0013 16.334H14.0013ZM21.0389 17.3605C21.2001 16.7368 21.8359 16.3621 22.4596 16.5231C23.711 16.8462 24.8203 17.5753 25.6121 18.5967C26.4039 19.6181 26.8336 20.8739 26.8346 22.1662V24.5007C26.8346 25.1449 26.3123 25.6673 25.668 25.6673C25.0237 25.6673 24.5014 25.1449 24.5013 24.5007V22.1685L24.4888 21.8791C24.4326 21.2069 24.1833 20.5629 23.7676 20.0265C23.2925 19.4137 22.6271 18.9751 21.8763 18.7813C21.2525 18.6201 20.8778 17.9843 21.0389 17.3605ZM10.5013 2.33398C13.723 2.33398 16.3346 4.94566 16.3346 8.16732C16.3346 11.389 13.723 14.0007 10.5013 14.0007C7.27964 14.0007 4.66797 11.389 4.66797 8.16732C4.66797 4.94566 7.27964 2.33398 10.5013 2.33398ZM17.5378 3.36279C17.6976 2.73869 18.3332 2.36219 18.9574 2.52197C20.2121 2.84324 21.3248 3.57355 22.119 4.59668C22.9129 5.61972 23.3437 6.87805 23.3438 8.17301C23.3438 9.46799 22.9129 10.7263 22.119 11.7493C21.3248 12.7725 20.2121 13.5028 18.9574 13.8241C18.3332 13.9839 17.6976 13.6074 17.5378 12.9832C17.378 12.3591 17.7544 11.7235 18.3786 11.5636C19.1314 11.3709 19.799 10.9333 20.2756 10.3195C20.752 9.70561 21.0104 8.95013 21.0104 8.17301C21.0104 7.39592 20.7521 6.6404 20.2756 6.02653C19.799 5.41272 19.1314 4.97513 18.3786 4.78239C17.7544 4.62255 17.3779 3.98698 17.5378 3.36279ZM10.5013 4.66732C8.56831 4.66732 7.0013 6.23432 7.0013 8.16732C7.0013 10.1003 8.56831 11.6673 10.5013 11.6673C12.4343 11.6673 14.0013 10.1003 14.0013 8.16732C14.0013 6.23432 12.4343 4.66732 10.5013 4.66732Z" fill="#108194"/>
</svg>
