<svg width="24" height="24" viewBox="0 0 24 24" fill="none" xmlns="http://www.w3.org/2000/svg">
<path d="M12.0008 4C14.3276 4.00009 16.6023 4.69119 18.536 5.98535C20.3488 7.19869 21.7858 8.89093 22.6893 10.8701L22.8631 11.2705L22.8758 11.3037C23.0423 11.7526 23.0424 12.2465 22.8758 12.6953C22.8718 12.7063 22.8676 12.7177 22.8631 12.7285C21.9759 14.8795 20.4697 16.7195 18.536 18.0137C16.6024 19.3077 14.3275 19.9989 12.0008 19.999C9.67398 19.9989 7.39843 19.3079 5.4647 18.0137C3.53101 16.7194 2.02474 14.8796 1.13756 12.7285C1.13308 12.7176 1.12895 12.7063 1.12486 12.6953C0.958296 12.2465 0.958464 11.7525 1.12486 11.3037L1.13756 11.2705C2.02466 9.11952 3.53118 7.27962 5.4647 5.98535C7.39843 4.69113 9.67398 4.00008 12.0008 4ZM12.0008 6C10.0701 6.00008 8.18157 6.57355 6.57701 7.64746C4.98278 8.71467 3.7387 10.2287 3.00084 11.999C3.73874 13.7697 4.98243 15.2842 6.57701 16.3516C8.18157 17.4255 10.0701 17.9989 12.0008 17.999C13.9314 17.9989 15.8192 17.4253 17.4237 16.3516C19.0181 15.2844 20.2609 13.7695 20.9989 11.999C20.2609 10.2287 19.018 8.71461 17.4237 7.64746C15.8192 6.57361 13.9315 6.00009 12.0008 6ZM12.0008 7.99902C14.2099 7.99907 16.0008 9.78991 16.0008 11.999C16.0008 14.2081 14.2099 15.999 12.0008 15.999C9.7917 15.999 8.00084 14.2082 8.00084 11.999C8.00084 9.78988 9.7917 7.99902 12.0008 7.99902ZM12.0008 9.99902C10.8963 9.99902 10.0008 10.8945 10.0008 11.999C10.0008 13.1036 10.8963 13.999 12.0008 13.999C13.1054 13.999 14.0008 13.1036 14.0008 11.999C14.0008 10.8945 13.1054 9.99907 12.0008 9.99902Z" fill="#9CA3AF"/>
<path d="M12.0008 4C14.3276 4.00009 16.6023 4.69119 18.536 5.98535C20.3488 7.19869 21.7858 8.89093 22.6893 10.8701L22.8631 11.2705L22.8758 11.3037C23.0423 11.7526 23.0424 12.2465 22.8758 12.6953C22.8718 12.7063 22.8676 12.7177 22.8631 12.7285C21.9759 14.8795 20.4697 16.7195 18.536 18.0137C16.6024 19.3077 14.3275 19.9989 12.0008 19.999C9.67398 19.9989 7.39843 19.3079 5.4647 18.0137C3.53101 16.7194 2.02474 14.8796 1.13756 12.7285C1.13308 12.7176 1.12895 12.7063 1.12486 12.6953C0.958296 12.2465 0.958464 11.7525 1.12486 11.3037L1.13756 11.2705C2.02466 9.11952 3.53118 7.27962 5.4647 5.98535C7.39843 4.69113 9.67398 4.00008 12.0008 4ZM12.0008 6C10.0701 6.00008 8.18157 6.57355 6.57701 7.64746C4.98278 8.71467 3.7387 10.2287 3.00084 11.999C3.73874 13.7697 4.98243 15.2842 6.57701 16.3516C8.18157 17.4255 10.0701 17.9989 12.0008 17.999C13.9314 17.9989 15.8192 17.4253 17.4237 16.3516C19.0181 15.2844 20.2609 13.7695 20.9989 11.999C20.2609 10.2287 19.018 8.71461 17.4237 7.64746C15.8192 6.57361 13.9315 6.00009 12.0008 6ZM12.0008 7.99902C14.2099 7.99907 16.0008 9.78991 16.0008 11.999C16.0008 14.2081 14.2099 15.999 12.0008 15.999C9.7917 15.999 8.00084 14.2082 8.00084 11.999C8.00084 9.78988 9.7917 7.99902 12.0008 7.99902ZM12.0008 9.99902C10.8963 9.99902 10.0008 10.8945 10.0008 11.999C10.0008 13.1036 10.8963 13.999 12.0008 13.999C13.1054 13.999 14.0008 13.1036 14.0008 11.999C14.0008 10.8945 13.1054 9.99907 12.0008 9.99902Z" fill="black" fill-opacity="0.2"/>
<path d="M12.0008 4C14.3276 4.00009 16.6023 4.69119 18.536 5.98535C20.3488 7.19869 21.7858 8.89093 22.6893 10.8701L22.8631 11.2705L22.8758 11.3037C23.0423 11.7526 23.0424 12.2465 22.8758 12.6953C22.8718 12.7063 22.8676 12.7177 22.8631 12.7285C21.9759 14.8795 20.4697 16.7195 18.536 18.0137C16.6024 19.3077 14.3275 19.9989 12.0008 19.999C9.67398 19.9989 7.39843 19.3079 5.4647 18.0137C3.53101 16.7194 2.02474 14.8796 1.13756 12.7285C1.13308 12.7176 1.12895 12.7063 1.12486 12.6953C0.958296 12.2465 0.958464 11.7525 1.12486 11.3037L1.13756 11.2705C2.02466 9.11952 3.53118 7.27962 5.4647 5.98535C7.39843 4.69113 9.67398 4.00008 12.0008 4ZM12.0008 6C10.0701 6.00008 8.18157 6.57355 6.57701 7.64746C4.98278 8.71467 3.7387 10.2287 3.00084 11.999C3.73874 13.7697 4.98243 15.2842 6.57701 16.3516C8.18157 17.4255 10.0701 17.9989 12.0008 17.999C13.9314 17.9989 15.8192 17.4253 17.4237 16.3516C19.0181 15.2844 20.2609 13.7695 20.9989 11.999C20.2609 10.2287 19.018 8.71461 17.4237 7.64746C15.8192 6.57361 13.9315 6.00009 12.0008 6ZM12.0008 7.99902C14.2099 7.99907 16.0008 9.78991 16.0008 11.999C16.0008 14.2081 14.2099 15.999 12.0008 15.999C9.7917 15.999 8.00084 14.2082 8.00084 11.999C8.00084 9.78988 9.7917 7.99902 12.0008 7.99902ZM12.0008 9.99902C10.8963 9.99902 10.0008 10.8945 10.0008 11.999C10.0008 13.1036 10.8963 13.999 12.0008 13.999C13.1054 13.999 14.0008 13.1036 14.0008 11.999C14.0008 10.8945 13.1054 9.99907 12.0008 9.99902Z" fill="black" fill-opacity="0.2"/>
<path d="M12.0008 4C14.3276 4.00009 16.6023 4.69119 18.536 5.98535C20.3488 7.19869 21.7858 8.89093 22.6893 10.8701L22.8631 11.2705L22.8758 11.3037C23.0423 11.7526 23.0424 12.2465 22.8758 12.6953C22.8718 12.7063 22.8676 12.7177 22.8631 12.7285C21.9759 14.8795 20.4697 16.7195 18.536 18.0137C16.6024 19.3077 14.3275 19.9989 12.0008 19.999C9.67398 19.9989 7.39843 19.3079 5.4647 18.0137C3.53101 16.7194 2.02474 14.8796 1.13756 12.7285C1.13308 12.7176 1.12895 12.7063 1.12486 12.6953C0.958296 12.2465 0.958464 11.7525 1.12486 11.3037L1.13756 11.2705C2.02466 9.11952 3.53118 7.27962 5.4647 5.98535C7.39843 4.69113 9.67398 4.00008 12.0008 4ZM12.0008 6C10.0701 6.00008 8.18157 6.57355 6.57701 7.64746C4.98278 8.71467 3.7387 10.2287 3.00084 11.999C3.73874 13.7697 4.98243 15.2842 6.57701 16.3516C8.18157 17.4255 10.0701 17.9989 12.0008 17.999C13.9314 17.9989 15.8192 17.4253 17.4237 16.3516C19.0181 15.2844 20.2609 13.7695 20.9989 11.999C20.2609 10.2287 19.018 8.71461 17.4237 7.64746C15.8192 6.57361 13.9315 6.00009 12.0008 6ZM12.0008 7.99902C14.2099 7.99907 16.0008 9.78991 16.0008 11.999C16.0008 14.2081 14.2099 15.999 12.0008 15.999C9.7917 15.999 8.00084 14.2082 8.00084 11.999C8.00084 9.78988 9.7917 7.99902 12.0008 7.99902ZM12.0008 9.99902C10.8963 9.99902 10.0008 10.8945 10.0008 11.999C10.0008 13.1036 10.8963 13.999 12.0008 13.999C13.1054 13.999 14.0008 13.1036 14.0008 11.999C14.0008 10.8945 13.1054 9.99907 12.0008 9.99902Z" fill="black" fill-opacity="0.2"/>
<path d="M12.0008 4C14.3276 4.00009 16.6023 4.69119 18.536 5.98535C20.3488 7.19869 21.7858 8.89093 22.6893 10.8701L22.8631 11.2705L22.8758 11.3037C23.0423 11.7526 23.0424 12.2465 22.8758 12.6953C22.8718 12.7063 22.8676 12.7177 22.8631 12.7285C21.9759 14.8795 20.4697 16.7195 18.536 18.0137C16.6024 19.3077 14.3275 19.9989 12.0008 19.999C9.67398 19.9989 7.39843 19.3079 5.4647 18.0137C3.53101 16.7194 2.02474 14.8796 1.13756 12.7285C1.13308 12.7176 1.12895 12.7063 1.12486 12.6953C0.958296 12.2465 0.958464 11.7525 1.12486 11.3037L1.13756 11.2705C2.02466 9.11952 3.53118 7.27962 5.4647 5.98535C7.39843 4.69113 9.67398 4.00008 12.0008 4ZM12.0008 6C10.0701 6.00008 8.18157 6.57355 6.57701 7.64746C4.98278 8.71467 3.7387 10.2287 3.00084 11.999C3.73874 13.7697 4.98243 15.2842 6.57701 16.3516C8.18157 17.4255 10.0701 17.9989 12.0008 17.999C13.9314 17.9989 15.8192 17.4253 17.4237 16.3516C19.0181 15.2844 20.2609 13.7695 20.9989 11.999C20.2609 10.2287 19.018 8.71461 17.4237 7.64746C15.8192 6.57361 13.9315 6.00009 12.0008 6ZM12.0008 7.99902C14.2099 7.99907 16.0008 9.78991 16.0008 11.999C16.0008 14.2081 14.2099 15.999 12.0008 15.999C9.7917 15.999 8.00084 14.2082 8.00084 11.999C8.00084 9.78988 9.7917 7.99902 12.0008 7.99902ZM12.0008 9.99902C10.8963 9.99902 10.0008 10.8945 10.0008 11.999C10.0008 13.1036 10.8963 13.999 12.0008 13.999C13.1054 13.999 14.0008 13.1036 14.0008 11.999C14.0008 10.8945 13.1054 9.99907 12.0008 9.99902Z" fill="black" fill-opacity="0.2"/>
<path d="M12.0008 4C14.3276 4.00009 16.6023 4.69119 18.536 5.98535C20.3488 7.19869 21.7858 8.89093 22.6893 10.8701L22.8631 11.2705L22.8758 11.3037C23.0423 11.7526 23.0424 12.2465 22.8758 12.6953C22.8718 12.7063 22.8676 12.7177 22.8631 12.7285C21.9759 14.8795 20.4697 16.7195 18.536 18.0137C16.6024 19.3077 14.3275 19.9989 12.0008 19.999C9.67398 19.9989 7.39843 19.3079 5.4647 18.0137C3.53101 16.7194 2.02474 14.8796 1.13756 12.7285C1.13308 12.7176 1.12895 12.7063 1.12486 12.6953C0.958296 12.2465 0.958464 11.7525 1.12486 11.3037L1.13756 11.2705C2.02466 9.11952 3.53118 7.27962 5.4647 5.98535C7.39843 4.69113 9.67398 4.00008 12.0008 4ZM12.0008 6C10.0701 6.00008 8.18157 6.57355 6.57701 7.64746C4.98278 8.71467 3.7387 10.2287 3.00084 11.999C3.73874 13.7697 4.98243 15.2842 6.57701 16.3516C8.18157 17.4255 10.0701 17.9989 12.0008 17.999C13.9314 17.9989 15.8192 17.4253 17.4237 16.3516C19.0181 15.2844 20.2609 13.7695 20.9989 11.999C20.2609 10.2287 19.018 8.71461 17.4237 7.64746C15.8192 6.57361 13.9315 6.00009 12.0008 6ZM12.0008 7.99902C14.2099 7.99907 16.0008 9.78991 16.0008 11.999C16.0008 14.2081 14.2099 15.999 12.0008 15.999C9.7917 15.999 8.00084 14.2082 8.00084 11.999C8.00084 9.78988 9.7917 7.99902 12.0008 7.99902ZM12.0008 9.99902C10.8963 9.99902 10.0008 10.8945 10.0008 11.999C10.0008 13.1036 10.8963 13.999 12.0008 13.999C13.1054 13.999 14.0008 13.1036 14.0008 11.999C14.0008 10.8945 13.1054 9.99907 12.0008 9.99902Z" fill="black" fill-opacity="0.2"/>
</svg>
