<svg width="24" height="24" viewBox="0 0 24 24" fill="none" xmlns="http://www.w3.org/2000/svg">
<path d="M20.3162 7.69222C20.4862 7.31462 20.9297 7.14644 21.3074 7.31624C21.6851 7.4862 21.8533 7.92974 21.6834 8.30745C20.8169 10.233 19.5592 11.7257 18.0867 12.7879L20.1062 15.5584L20.1482 15.6219C20.3401 15.9502 20.2551 16.3775 19.9412 16.6063C19.6065 16.8499 19.1372 16.7758 18.8933 16.4412L16.8054 13.576C15.5309 14.2386 14.1491 14.6212 12.7498 14.7215V17.4998C12.7498 17.914 12.414 18.2498 11.9998 18.2498C11.5856 18.2497 11.2498 17.914 11.2498 17.4998V14.7215C9.85016 14.6211 8.4678 14.2388 7.19313 13.576L5.10622 16.4412C4.86235 16.7759 4.3931 16.8499 4.05837 16.6063C3.72391 16.3624 3.64974 15.8931 3.89333 15.5584L5.91188 12.7879C4.43975 11.7257 3.18251 10.2326 2.31618 8.30745C2.14638 7.9298 2.31456 7.48621 2.69216 7.31624C3.06981 7.14629 3.51331 7.31464 3.68337 7.69222C7.01803 15.1026 16.9815 15.1026 20.3162 7.69222Z" fill="#9CA3AF"/>
<path d="M20.3162 7.69222C20.4862 7.31462 20.9297 7.14644 21.3074 7.31624C21.6851 7.4862 21.8533 7.92974 21.6834 8.30745C20.8169 10.233 19.5592 11.7257 18.0867 12.7879L20.1062 15.5584L20.1482 15.6219C20.3401 15.9502 20.2551 16.3775 19.9412 16.6063C19.6065 16.8499 19.1372 16.7758 18.8933 16.4412L16.8054 13.576C15.5309 14.2386 14.1491 14.6212 12.7498 14.7215V17.4998C12.7498 17.914 12.414 18.2498 11.9998 18.2498C11.5856 18.2497 11.2498 17.914 11.2498 17.4998V14.7215C9.85016 14.6211 8.4678 14.2388 7.19313 13.576L5.10622 16.4412C4.86235 16.7759 4.3931 16.8499 4.05837 16.6063C3.72391 16.3624 3.64974 15.8931 3.89333 15.5584L5.91188 12.7879C4.43975 11.7257 3.18251 10.2326 2.31618 8.30745C2.14638 7.9298 2.31456 7.48621 2.69216 7.31624C3.06981 7.14629 3.51331 7.31464 3.68337 7.69222C7.01803 15.1026 16.9815 15.1026 20.3162 7.69222Z" fill="black" fill-opacity="0.2"/>
<path d="M20.3162 7.69222C20.4862 7.31462 20.9297 7.14644 21.3074 7.31624C21.6851 7.4862 21.8533 7.92974 21.6834 8.30745C20.8169 10.233 19.5592 11.7257 18.0867 12.7879L20.1062 15.5584L20.1482 15.6219C20.3401 15.9502 20.2551 16.3775 19.9412 16.6063C19.6065 16.8499 19.1372 16.7758 18.8933 16.4412L16.8054 13.576C15.5309 14.2386 14.1491 14.6212 12.7498 14.7215V17.4998C12.7498 17.914 12.414 18.2498 11.9998 18.2498C11.5856 18.2497 11.2498 17.914 11.2498 17.4998V14.7215C9.85016 14.6211 8.4678 14.2388 7.19313 13.576L5.10622 16.4412C4.86235 16.7759 4.3931 16.8499 4.05837 16.6063C3.72391 16.3624 3.64974 15.8931 3.89333 15.5584L5.91188 12.7879C4.43975 11.7257 3.18251 10.2326 2.31618 8.30745C2.14638 7.9298 2.31456 7.48621 2.69216 7.31624C3.06981 7.14629 3.51331 7.31464 3.68337 7.69222C7.01803 15.1026 16.9815 15.1026 20.3162 7.69222Z" fill="black" fill-opacity="0.2"/>
<path d="M20.3162 7.69222C20.4862 7.31462 20.9297 7.14644 21.3074 7.31624C21.6851 7.4862 21.8533 7.92974 21.6834 8.30745C20.8169 10.233 19.5592 11.7257 18.0867 12.7879L20.1062 15.5584L20.1482 15.6219C20.3401 15.9502 20.2551 16.3775 19.9412 16.6063C19.6065 16.8499 19.1372 16.7758 18.8933 16.4412L16.8054 13.576C15.5309 14.2386 14.1491 14.6212 12.7498 14.7215V17.4998C12.7498 17.914 12.414 18.2498 11.9998 18.2498C11.5856 18.2497 11.2498 17.914 11.2498 17.4998V14.7215C9.85016 14.6211 8.4678 14.2388 7.19313 13.576L5.10622 16.4412C4.86235 16.7759 4.3931 16.8499 4.05837 16.6063C3.72391 16.3624 3.64974 15.8931 3.89333 15.5584L5.91188 12.7879C4.43975 11.7257 3.18251 10.2326 2.31618 8.30745C2.14638 7.9298 2.31456 7.48621 2.69216 7.31624C3.06981 7.14629 3.51331 7.31464 3.68337 7.69222C7.01803 15.1026 16.9815 15.1026 20.3162 7.69222Z" fill="black" fill-opacity="0.2"/>
<path d="M20.3162 7.69222C20.4862 7.31462 20.9297 7.14644 21.3074 7.31624C21.6851 7.4862 21.8533 7.92974 21.6834 8.30745C20.8169 10.233 19.5592 11.7257 18.0867 12.7879L20.1062 15.5584L20.1482 15.6219C20.3401 15.9502 20.2551 16.3775 19.9412 16.6063C19.6065 16.8499 19.1372 16.7758 18.8933 16.4412L16.8054 13.576C15.5309 14.2386 14.1491 14.6212 12.7498 14.7215V17.4998C12.7498 17.914 12.414 18.2498 11.9998 18.2498C11.5856 18.2497 11.2498 17.914 11.2498 17.4998V14.7215C9.85016 14.6211 8.4678 14.2388 7.19313 13.576L5.10622 16.4412C4.86235 16.7759 4.3931 16.8499 4.05837 16.6063C3.72391 16.3624 3.64974 15.8931 3.89333 15.5584L5.91188 12.7879C4.43975 11.7257 3.18251 10.2326 2.31618 8.30745C2.14638 7.9298 2.31456 7.48621 2.69216 7.31624C3.06981 7.14629 3.51331 7.31464 3.68337 7.69222C7.01803 15.1026 16.9815 15.1026 20.3162 7.69222Z" fill="black" fill-opacity="0.2"/>
<path d="M20.3162 7.69222C20.4862 7.31462 20.9297 7.14644 21.3074 7.31624C21.6851 7.4862 21.8533 7.92974 21.6834 8.30745C20.8169 10.233 19.5592 11.7257 18.0867 12.7879L20.1062 15.5584L20.1482 15.6219C20.3401 15.9502 20.2551 16.3775 19.9412 16.6063C19.6065 16.8499 19.1372 16.7758 18.8933 16.4412L16.8054 13.576C15.5309 14.2386 14.1491 14.6212 12.7498 14.7215V17.4998C12.7498 17.914 12.414 18.2498 11.9998 18.2498C11.5856 18.2497 11.2498 17.914 11.2498 17.4998V14.7215C9.85016 14.6211 8.4678 14.2388 7.19313 13.576L5.10622 16.4412C4.86235 16.7759 4.3931 16.8499 4.05837 16.6063C3.72391 16.3624 3.64974 15.8931 3.89333 15.5584L5.91188 12.7879C4.43975 11.7257 3.18251 10.2326 2.31618 8.30745C2.14638 7.9298 2.31456 7.48621 2.69216 7.31624C3.06981 7.14629 3.51331 7.31464 3.68337 7.69222C7.01803 15.1026 16.9815 15.1026 20.3162 7.69222Z" fill="black" fill-opacity="0.2"/>
</svg>
