<svg width="60" height="60" viewBox="0 0 60 60" fill="none" xmlns="http://www.w3.org/2000/svg">
<path d="M25.6641 52.4863C26.1028 53.2462 26.7338 53.8771 27.4937 54.3158C28.2536 54.7545 29.1155 54.9855 29.9929 54.9855C30.8704 54.9855 31.7323 54.7545 32.4922 54.3158C33.2521 53.8771 33.8831 53.2462 34.3218 52.4863" fill="#FBBF24"/>
<path d="M54.987 19.9942C54.987 14.2457 52.9875 9.24695 49.9883 4.99805L54.987 19.9942Z" fill="#FBBF24"/>
<path d="M8.15301 38.3045C7.8265 38.6623 7.61103 39.1074 7.5328 39.5854C7.45458 40.0635 7.51697 40.554 7.71238 40.9973C7.9078 41.4405 8.22782 41.8174 8.63352 42.0822C9.03922 42.3469 9.5131 42.488 9.99753 42.4884H49.9872C50.4716 42.4886 50.9456 42.348 51.3515 42.0838C51.7575 41.8195 52.0779 41.443 52.2739 41.0001C52.4698 40.5571 52.5328 40.0667 52.4552 39.5886C52.3776 39.1105 52.1627 38.6652 51.8367 38.307C48.5126 34.8803 44.9885 31.2388 44.9885 19.9942C44.9885 16.017 43.4086 12.2026 40.5962 9.39031C37.7839 6.57799 33.9696 4.99805 29.9924 4.99805C26.0152 4.99805 22.2008 6.57799 19.3885 9.39031C16.5762 12.2026 14.9962 16.017 14.9962 19.9942C14.9962 31.2388 11.4697 34.8803 8.15301 38.3045Z" fill="#FBBF24"/>
<path d="M9.99871 4.99805C6.99948 9.24695 5 14.2457 5 19.9942L9.99871 4.99805Z" fill="#FBBF24"/>
</svg>
