<svg width="24" height="24" viewBox="0 0 24 24" fill="none" xmlns="http://www.w3.org/2000/svg">
<path d="M11.7095 2.58022C13.0604 1.73278 14.659 1.36891 16.2437 1.54799C17.8283 1.72715 19.3054 2.43891 20.4331 3.56654C21.5607 4.69424 22.2725 6.17135 22.4517 7.756C22.6307 9.3406 22.2669 10.9393 21.4194 12.2902C20.5719 13.6411 19.2904 14.6652 17.7856 15.1935C16.4151 15.6746 14.9329 15.7176 13.5415 15.3253L13.0278 15.839C12.5351 16.3319 11.8664 16.6092 11.1694 16.6095H11.0005C10.9172 16.6095 10.8368 16.6424 10.7778 16.7013C10.7189 16.7603 10.686 16.8406 10.686 16.924V17.9054C10.6859 18.3422 10.5124 18.7616 10.2036 19.0704C9.89465 19.3794 9.47454 19.5528 9.0376 19.5529H8.05713C7.97377 19.5529 7.89343 19.5857 7.83447 19.6447C7.77551 19.7036 7.74268 19.7839 7.74268 19.8673V20.8488C7.74252 21.2856 7.56911 21.7049 7.26025 22.0138C6.95139 22.3227 6.53199 22.4961 6.09521 22.4962H3.15186C2.71511 22.4962 2.29578 22.3225 1.98682 22.0138C1.67794 21.7049 1.50357 21.2856 1.50342 20.8488V18.7169C1.50366 18.0199 1.78097 17.3513 2.27393 16.8585L8.67432 10.4581C8.28202 9.06673 8.32507 7.58454 8.80615 6.214C9.33448 4.70919 10.3585 3.42779 11.7095 2.58022ZM16.0942 2.87318C14.8095 2.72797 13.5127 3.02299 12.4175 3.7101C11.3225 4.39721 10.4932 5.43566 10.0649 6.65541C9.63666 7.87535 9.63474 9.20494 10.0601 10.4259C10.144 10.6673 10.0826 10.9356 9.90186 11.1163L3.21631 17.8019C2.97352 18.0448 2.83748 18.3745 2.8374 18.7179V20.8488C2.83756 20.9319 2.87044 21.0116 2.9292 21.0704C2.98815 21.1293 3.06856 21.1632 3.15186 21.1632H6.09521C6.17837 21.1631 6.25808 21.1293 6.31689 21.0704C6.3757 21.0116 6.40951 20.9319 6.40967 20.8488V19.8673C6.40967 19.4303 6.58308 19.0113 6.89209 18.7023C7.2011 18.3933 7.62015 18.2199 8.05713 18.2199H9.0376C9.12091 18.2198 9.20134 18.186 9.26025 18.1271C9.31903 18.0683 9.35192 17.9886 9.35205 17.9054V16.924C9.35206 16.487 9.52644 16.0679 9.83545 15.7589C10.1444 15.45 10.5635 15.2765 11.0005 15.2765H11.1685C11.5119 15.2764 11.8416 15.1395 12.0845 14.8966L12.8833 14.0978C13.064 13.9171 13.3323 13.8557 13.5737 13.9396C14.7947 14.3648 16.1244 14.363 17.3442 13.9347C18.564 13.5064 19.6024 12.6772 20.2896 11.5822C20.9767 10.487 21.2726 9.19014 21.1274 7.90541C20.9822 6.62085 20.4048 5.42309 19.4907 4.50893C18.5766 3.59482 17.3788 3.01849 16.0942 2.87318ZM16.5142 6.45229C17.0976 6.51159 17.5532 7.00455 17.5532 7.60365C17.5531 8.24259 17.0349 8.76074 16.396 8.76088C15.7968 8.76088 15.3039 8.30536 15.2446 7.72182L15.2388 7.60365L15.2446 7.48549C15.3038 6.90191 15.7968 6.44643 16.396 6.44643L16.5142 6.45229Z" fill="#108194"/>
<path fill-rule="evenodd" clip-rule="evenodd" d="M11.7095 2.58022L11.5766 2.36844L11.5766 2.36844L11.7095 2.58022ZM16.2437 1.54799L16.2717 1.29957L16.2717 1.29957L16.2437 1.54799ZM20.4331 3.56654L20.6099 3.38977L20.6099 3.38976L20.4331 3.56654ZM22.4517 7.756L22.7001 7.72793L22.7001 7.72791L22.4517 7.756ZM21.4194 12.2902L21.6312 12.423L21.6312 12.423L21.4194 12.2902ZM17.7856 15.1935L17.8684 15.4294L17.8685 15.4294L17.7856 15.1935ZM13.5415 15.3253L13.6093 15.0847C13.5223 15.0602 13.4287 15.0846 13.3647 15.1486L13.5415 15.3253ZM13.0278 15.839L12.8511 15.6622L12.851 15.6623L13.0278 15.839ZM11.1694 16.6095V16.8595H11.1695L11.1694 16.6095ZM10.7778 16.7013L10.6012 16.5244L10.6011 16.5245L10.7778 16.7013ZM10.686 16.924L10.436 16.9239V16.924H10.686ZM10.686 17.9054L10.936 17.9055V17.9054H10.686ZM10.2036 19.0704L10.3804 19.2472L10.3804 19.2472L10.2036 19.0704ZM9.0376 19.5529V19.8029H9.03763L9.0376 19.5529ZM7.83447 19.6447L7.65775 19.4678L7.6577 19.4679L7.83447 19.6447ZM7.74268 20.8488L7.99268 20.8489V20.8488H7.74268ZM7.26025 22.0138L7.43703 22.1906L7.43704 22.1906L7.26025 22.0138ZM6.09521 22.4962V22.7462H6.09531L6.09521 22.4962ZM1.98682 22.0138L1.81004 22.1906L1.81013 22.1907L1.98682 22.0138ZM1.50342 20.8488H1.25342L1.25342 20.8489L1.50342 20.8488ZM1.50342 18.7169L1.25342 18.7168V18.7169H1.50342ZM2.27393 16.8585L2.45068 17.0353L2.4507 17.0353L2.27393 16.8585ZM8.67432 10.4581L8.85109 10.6349C8.91507 10.5709 8.93949 10.4774 8.91494 10.3903L8.67432 10.4581ZM8.80615 6.214L8.57027 6.13119L8.57026 6.1312L8.80615 6.214ZM16.0942 2.87318L16.1223 2.62477L16.1223 2.62477L16.0942 2.87318ZM12.4175 3.7101L12.2846 3.49832L12.2846 3.49834L12.4175 3.7101ZM10.0649 6.65541L9.82906 6.57259L9.82906 6.5726L10.0649 6.65541ZM10.0601 10.4259L10.2962 10.3438L10.2961 10.3437L10.0601 10.4259ZM9.90186 11.1163L10.0786 11.2931L10.0786 11.2931L9.90186 11.1163ZM3.21631 17.8019L3.03953 17.6251L3.0395 17.6252L3.21631 17.8019ZM2.8374 18.7179L2.5874 18.7179V18.7179H2.8374ZM2.8374 20.8488H2.5874L2.5874 20.8492L2.8374 20.8488ZM2.9292 21.0704L2.75233 21.2471L2.75258 21.2474L2.9292 21.0704ZM6.09521 21.1632V21.4132H6.09573L6.09521 21.1632ZM6.31689 21.0704L6.49367 21.2472L6.4937 21.2472L6.31689 21.0704ZM6.40967 20.8488L6.65967 20.8492V20.8488H6.40967ZM6.89209 18.7023L6.71532 18.5255L6.71531 18.5255L6.89209 18.7023ZM9.0376 18.2199V18.4699H9.03777L9.0376 18.2199ZM9.26025 18.1271L9.43703 18.3039L9.43712 18.3038L9.26025 18.1271ZM9.35205 17.9054L9.60205 17.9058V17.9054H9.35205ZM9.35205 16.924L9.10205 16.924V16.924H9.35205ZM9.83545 15.7589L9.6587 15.5821L9.65867 15.5821L9.83545 15.7589ZM11.1685 15.2765V15.5265H11.1686L11.1685 15.2765ZM12.0845 14.8966L11.9077 14.7198V14.7198L12.0845 14.8966ZM12.8833 14.0978L12.7065 13.921L12.7065 13.921L12.8833 14.0978ZM13.5737 13.9396L13.656 13.7035L13.6558 13.7034L13.5737 13.9396ZM17.3442 13.9347L17.4271 14.1706L17.4271 14.1706L17.3442 13.9347ZM20.2896 11.5822L20.5013 11.715L20.5013 11.715L20.2896 11.5822ZM21.1274 7.90541L21.3759 7.87734L21.3759 7.87732L21.1274 7.90541ZM19.4907 4.50893L19.6675 4.33216L19.6675 4.33215L19.4907 4.50893ZM16.5142 6.45229L16.5395 6.20323L16.5265 6.20259L16.5142 6.45229ZM17.5532 7.60365L17.8032 7.60369V7.60364L17.5532 7.60365ZM16.396 8.76088V9.01088H16.3961L16.396 8.76088ZM15.2446 7.72182L14.9946 7.73421L14.9959 7.74707L15.2446 7.72182ZM15.2388 7.60365L14.9891 7.59127C14.9887 7.59952 14.9887 7.60778 14.9891 7.61603L15.2388 7.60365ZM15.2446 7.48549L14.9956 7.46022L14.9949 7.47311L15.2446 7.48549ZM16.396 6.44643L16.4084 6.19643H16.396V6.44643ZM11.7095 2.58022L11.8423 2.79199C13.1453 1.97464 14.6872 1.62368 16.2156 1.79641L16.2437 1.54799L16.2717 1.29957C14.6309 1.11413 12.9755 1.49091 11.5766 2.36844L11.7095 2.58022ZM16.2437 1.54799L16.2156 1.79641C17.744 1.96921 19.1687 2.6557 20.2563 3.74332L20.4331 3.56654L20.6099 3.38976C19.4422 2.22211 17.9126 1.48509 16.2717 1.29957L16.2437 1.54799ZM20.4331 3.56654L20.2563 3.74331C21.3439 4.83099 22.0305 6.25569 22.2032 7.78408L22.4517 7.756L22.7001 7.72791C22.5146 6.08701 21.7775 4.55748 20.6099 3.38977L20.4331 3.56654ZM22.4517 7.756L22.2032 7.78407C22.3759 9.31245 22.025 10.8544 21.2077 12.1573L21.4194 12.2902L21.6312 12.423C22.5087 11.0242 22.8855 9.36876 22.7001 7.72793L22.4517 7.756ZM21.4194 12.2902L21.2077 12.1573C20.3902 13.4603 19.1541 14.448 17.7028 14.9576L17.7856 15.1935L17.8685 15.4294C19.4266 14.8823 20.7536 13.8219 21.6312 12.423L21.4194 12.2902ZM17.7856 15.1935L17.7028 14.9576C16.3811 15.4216 14.9515 15.4631 13.6093 15.0847L13.5415 15.3253L13.4737 15.566C14.9143 15.9721 16.4491 15.9276 17.8684 15.4294L17.7856 15.1935ZM13.5415 15.3253L13.3647 15.1486L12.8511 15.6622L13.0278 15.839L13.2046 16.0158L13.7183 15.5021L13.5415 15.3253ZM13.0278 15.839L12.851 15.6623C12.4051 16.1083 11.8 16.3593 11.1693 16.3595L11.1694 16.6095L11.1695 16.8595C11.9328 16.8592 12.665 16.5555 13.2046 16.0158L13.0278 15.839ZM11.1694 16.6095V16.3595H11.0005V16.6095V16.8595H11.1694V16.6095ZM11.0005 16.6095V16.3595C10.8516 16.3595 10.7075 16.4182 10.6012 16.5244L10.7778 16.7013L10.9545 16.8782C10.9661 16.8666 10.9827 16.8595 11.0005 16.8595V16.6095ZM10.7778 16.7013L10.6011 16.5245C10.4946 16.631 10.436 16.7752 10.436 16.9239L10.686 16.924L10.936 16.924C10.936 16.906 10.9432 16.8895 10.9546 16.8781L10.7778 16.7013ZM10.686 16.924H10.436V17.9054H10.686H10.936V16.924H10.686ZM10.686 17.9054L10.436 17.9053C10.4359 18.276 10.2887 18.6318 10.0268 18.8937L10.2036 19.0704L10.3804 19.2472C10.7362 18.8914 10.9359 18.4084 10.936 17.9055L10.686 17.9054ZM10.2036 19.0704L10.0268 18.8937C9.76493 19.1556 9.40846 19.3028 9.03757 19.3029L9.0376 19.5529L9.03763 19.8029C9.54061 19.8028 10.0244 19.6032 10.3804 19.2472L10.2036 19.0704ZM9.0376 19.5529V19.3029H8.05713V19.5529V19.8029H9.0376V19.5529ZM8.05713 19.5529V19.3029C7.90829 19.3029 7.76415 19.3615 7.65775 19.4678L7.83447 19.6447L8.01119 19.8215C8.02272 19.81 8.03925 19.8029 8.05713 19.8029V19.5529ZM7.83447 19.6447L7.6577 19.4679C7.55123 19.5744 7.49268 19.7185 7.49268 19.8673H7.74268H7.99268C7.99268 19.8494 7.99978 19.8329 8.01125 19.8214L7.83447 19.6447ZM7.74268 19.8673H7.49268V20.8488H7.74268H7.99268V19.8673H7.74268ZM7.74268 20.8488L7.49268 20.8487C7.49254 21.2193 7.34537 21.5751 7.08347 21.837L7.26025 22.0138L7.43704 22.1906C7.79286 21.8347 7.9925 21.3518 7.99268 20.8489L7.74268 20.8488ZM7.26025 22.0138L7.08348 21.837C6.82159 22.0989 6.46579 22.2461 6.09512 22.2462L6.09521 22.4962L6.09531 22.7462C6.5982 22.746 7.08119 22.5464 7.43703 22.1906L7.26025 22.0138ZM6.09521 22.4962V22.2462H3.15186V22.4962V22.7462H6.09521V22.4962ZM3.15186 22.4962V22.2462C2.78145 22.2462 2.42564 22.0988 2.16351 21.8369L1.98682 22.0138L1.81013 22.1907C2.16591 22.5461 2.64878 22.7462 3.15186 22.7462V22.4962ZM1.98682 22.0138L2.16359 21.837C1.90142 21.5749 1.75355 21.219 1.75342 20.8487L1.50342 20.8488L1.25342 20.8489C1.2536 21.3522 1.45446 21.835 1.81004 22.1906L1.98682 22.0138ZM1.50342 20.8488H1.75342V18.7169H1.50342H1.25342V20.8488H1.50342ZM1.50342 18.7169L1.75342 18.717C1.75364 18.0863 2.00457 17.4813 2.45068 17.0353L2.27393 16.8585L2.09718 16.6817C1.55737 17.2214 1.25368 17.9535 1.25342 18.7168L1.50342 18.7169ZM2.27393 16.8585L2.4507 17.0353L8.85109 10.6349L8.67432 10.4581L8.49754 10.2814L2.09715 16.6818L2.27393 16.8585ZM8.67432 10.4581L8.91494 10.3903C8.53651 9.0481 8.57809 7.61853 9.04204 6.29681L8.80615 6.214L8.57026 6.1312C8.07204 7.55055 8.02752 9.08535 8.4337 10.526L8.67432 10.4581ZM8.80615 6.214L9.04204 6.29682C9.55161 4.84544 10.5393 3.6095 11.8423 2.79199L11.7095 2.58022L11.5766 2.36844C10.1777 3.24609 9.11736 4.57294 8.57027 6.13119L8.80615 6.214ZM16.0942 2.87318L16.1223 2.62477C14.7813 2.4732 13.4279 2.78112 12.2846 3.49832L12.4175 3.7101L12.5503 3.92187C13.5976 3.26486 14.8376 2.98274 16.0662 3.1216L16.0942 2.87318ZM12.4175 3.7101L12.2846 3.49834C11.1416 4.21555 10.2761 5.29947 9.82906 6.57259L10.0649 6.65541L10.3008 6.73823C10.7104 5.57185 11.5033 4.57887 12.5504 3.92186L12.4175 3.7101ZM10.0649 6.65541L9.82906 6.5726C9.38203 7.84591 9.38001 9.23369 9.82397 10.5082L10.0601 10.4259L10.2961 10.3437C9.88946 9.17619 9.89128 7.9048 10.3008 6.73822L10.0649 6.65541ZM10.0601 10.4259L9.82392 10.508C9.87639 10.659 9.83795 10.8267 9.72507 10.9396L9.90186 11.1163L10.0786 11.2931C10.3272 11.0445 10.4115 10.6757 10.2962 10.3438L10.0601 10.4259ZM9.90186 11.1163L9.72508 10.9396L3.03953 17.6251L3.21631 17.8019L3.39309 17.9787L10.0786 11.2931L9.90186 11.1163ZM3.21631 17.8019L3.0395 17.6252C2.74968 17.9151 2.58749 18.3084 2.5874 18.7179L2.8374 18.7179L3.0874 18.718C3.08746 18.4405 3.19737 18.1745 3.39312 17.9786L3.21631 17.8019ZM2.8374 18.7179H2.5874V20.8488H2.8374H3.0874V18.7179H2.8374ZM2.8374 20.8488L2.5874 20.8492C2.58768 20.998 2.64657 21.1413 2.75233 21.2471L2.9292 21.0704L3.10607 20.8938C3.09432 20.882 3.08743 20.8658 3.0874 20.8483L2.8374 20.8488ZM2.9292 21.0704L2.75258 21.2474C2.85744 21.3521 3.00099 21.4132 3.15186 21.4132V21.1632V20.9132C3.13612 20.9132 3.11885 20.9065 3.10582 20.8935L2.9292 21.0704ZM3.15186 21.1632V21.4132H6.09521V21.1632V20.9132H3.15186V21.1632ZM6.09521 21.1632L6.09573 21.4132C6.24639 21.4129 6.38908 21.3518 6.49367 21.2472L6.31689 21.0704L6.14012 20.8937C6.12708 20.9067 6.11036 20.9132 6.0947 20.9132L6.09521 21.1632ZM6.31689 21.0704L6.4937 21.2472C6.59821 21.1427 6.65939 21 6.65967 20.8492L6.40967 20.8488L6.15967 20.8483C6.15964 20.8639 6.15319 20.8806 6.14009 20.8937L6.31689 21.0704ZM6.40967 20.8488H6.65967V19.8673H6.40967H6.15967V20.8488H6.40967ZM6.40967 19.8673H6.65967C6.65967 19.4966 6.80678 19.1412 7.06887 18.8791L6.89209 18.7023L6.71531 18.5255C6.35937 18.8815 6.15967 19.3641 6.15967 19.8673H6.40967ZM6.89209 18.7023L7.06886 18.8791C7.33095 18.617 7.68641 18.4699 8.05713 18.4699V18.2199V17.9699C7.5539 17.9699 7.07125 18.1696 6.71532 18.5255L6.89209 18.7023ZM8.05713 18.2199V18.4699H9.0376V18.2199V17.9699H8.05713V18.2199ZM9.0376 18.2199L9.03777 18.4699C9.18825 18.4698 9.33193 18.409 9.43703 18.3039L9.26025 18.1271L9.08348 17.9503C9.07075 17.963 9.05357 17.9699 9.03743 17.9699L9.0376 18.2199ZM9.26025 18.1271L9.43712 18.3038C9.54287 18.1979 9.60181 18.0547 9.60205 17.9058L9.35205 17.9054L9.10205 17.905C9.10202 17.9224 9.09519 17.9386 9.08339 17.9504L9.26025 18.1271ZM9.35205 17.9054H9.60205V16.924H9.35205H9.10205V17.9054H9.35205ZM9.35205 16.924L9.60205 16.924C9.60206 16.5536 9.74988 16.1981 10.0122 15.9357L9.83545 15.7589L9.65867 15.5821C9.303 15.9378 9.10206 16.4203 9.10205 16.924L9.35205 16.924ZM9.83545 15.7589L10.0122 15.9357C10.2743 15.6737 10.6298 15.5265 11.0005 15.5265V15.2765V15.0265C10.4973 15.0265 10.0146 15.2263 9.6587 15.5821L9.83545 15.7589ZM11.0005 15.2765V15.5265H11.1685V15.2765V15.0265H11.0005V15.2765ZM11.1685 15.2765L11.1686 15.5265C11.5784 15.5264 11.9716 15.363 12.2612 15.0734L12.0845 14.8966L11.9077 14.7198C11.7116 14.9159 11.4454 15.0264 11.1684 15.0265L11.1685 15.2765ZM12.0845 14.8966L12.2612 15.0734L13.0601 14.2746L12.8833 14.0978L12.7065 13.921L11.9077 14.7198L12.0845 14.8966ZM12.8833 14.0978L13.0601 14.2746C13.1729 14.1617 13.3407 14.1233 13.4917 14.1757L13.5737 13.9396L13.6558 13.7034C13.324 13.5881 12.9551 13.6725 12.7065 13.921L12.8833 14.0978ZM13.5737 13.9396L13.4915 14.1757C14.7659 14.6196 16.1538 14.6176 17.4271 14.1706L17.3442 13.9347L17.2614 13.6988C16.0949 14.1084 14.8234 14.1101 13.656 13.7035L13.5737 13.9396ZM17.3442 13.9347L17.4271 14.1706C18.7002 13.7236 19.7841 12.858 20.5013 11.715L20.2896 11.5822L20.0778 11.4493C19.4208 12.4963 18.4278 13.2893 17.2614 13.6988L17.3442 13.9347ZM20.2896 11.5822L20.5013 11.715C21.2185 10.5719 21.5274 9.2184 21.3759 7.87734L21.1274 7.90541L20.879 7.93348C21.0178 9.16187 20.7348 10.402 20.0778 11.4493L20.2896 11.5822ZM21.1274 7.90541L21.3759 7.87732C21.2242 6.53648 20.6216 5.28631 19.6675 4.33216L19.4907 4.50893L19.3139 4.68569C20.188 5.55986 20.7401 6.70521 20.879 7.9335L21.1274 7.90541ZM19.4907 4.50893L19.6675 4.33215C18.7133 3.37796 17.463 2.77642 16.1223 2.62477L16.0942 2.87318L16.0661 3.1216C17.2946 3.26055 18.4399 3.81169 19.3139 4.68571L19.4907 4.50893ZM16.5142 6.45229L16.4889 6.701C16.946 6.74747 17.3032 7.13417 17.3032 7.60367L17.5532 7.60365L17.8032 7.60364C17.8032 6.87493 17.2492 6.27571 16.5394 6.20357L16.5142 6.45229ZM17.5532 7.60365L17.3032 7.60361C17.3031 8.1045 16.8969 8.51077 16.3959 8.51088L16.396 8.76088L16.3961 9.01088C17.173 9.01071 17.8031 8.38068 17.8032 7.60369L17.5532 7.60365ZM16.396 8.76088V8.51088C15.9264 8.51088 15.5398 8.15378 15.4934 7.69656L15.2446 7.72182L14.9959 7.74707C15.068 8.45694 15.6672 9.01088 16.396 9.01088V8.76088ZM15.2446 7.72182L15.4943 7.70943L15.4885 7.59127L15.2388 7.60365L14.9891 7.61603L14.9949 7.7342L15.2446 7.72182ZM15.2388 7.60365L15.4885 7.61603L15.4943 7.49787L15.2446 7.48549L14.9949 7.47311L14.9891 7.59127L15.2388 7.60365ZM15.2446 7.48549L15.4934 7.51073C15.5397 7.0535 15.9264 6.69643 16.396 6.69643V6.44643V6.19643C15.6672 6.19643 15.0679 6.75032 14.9959 7.46025L15.2446 7.48549ZM16.396 6.44643L16.3836 6.69612L16.5018 6.70198L16.5142 6.45229L16.5265 6.20259L16.4084 6.19673L16.396 6.44643Z" fill="#108194"/>
</svg>
