<svg width="167" height="45" viewBox="0 0 167 45" fill="none" xmlns="http://www.w3.org/2000/svg">
<g clip-path="url(#clip0_622_1506)">
<g clip-path="url(#clip1_622_1506)">
<path d="M59.3798 12.7106H57.7291V10.2726H59.3798V12.7106ZM59.3798 16.515H57.7291V14.5084H59.3798V16.515ZM59.3798 20.9525H57.7291V18.539H59.3798V20.9525ZM61.83 8.47656H55.0669V10.2726H55.8914V20.9525H55.0669V22.7275H59.3798V25.3935H61.1959V10.2726H61.83V8.47656Z" fill="#231F20"/>
</g>
<g clip-path="url(#clip2_622_1506)">
<path d="M63.3518 13.1038L61.8325 14.6394V16.7382H67.3382V14.1094H65.5968V14.9623H63.6439L66.8527 11.814L65.6792 10.668L64.4663 11.8543L63.6583 11.0576L66.2453 8.52528L63.8589 8.46737L62.0475 10.2398C62.0475 10.2398 61.2932 11.0243 62.2141 11.9912L63.3518 13.1038ZM71.9911 14.1094V14.9623H70.04L73.2489 11.814L72.0789 10.668L70.8624 11.8543L70.0526 11.0576L72.6361 8.52528L70.255 8.46737L68.4419 10.2398C68.4419 10.2398 67.6894 11.0243 68.6049 11.9912L69.7479 13.1038L68.2322 14.6394V16.7382H73.7362V14.1094H71.9911ZM67.3382 17.3138H65.5968V20.9501H63.6457V17.3138H61.8325V21.4362C61.8325 22.726 63.153 22.726 63.153 22.726H64.8694L62.422 25.3935H64.5146L66.8222 22.726C67.4314 22.01 67.3382 21.3852 67.3382 21.3852V17.3138ZM71.9714 20.9501H70.1135V17.3138H68.1839V25.3935H70.1135V22.726H72.4624C73.6627 22.7032 73.7362 21.4817 73.7362 21.4817V17.3138H71.9714V20.9501ZM83.7711 9.69054H87.2559V8.46737H89.1585V9.69054H92.8009V11.4858H89.1585V13.6022H92.8009V15.4466H89.1585V17.4753H92.8009V19.3197H89.1585V20.6078C89.1585 20.6078 89.2052 21.1835 88.6659 21.9205L85.9623 25.3935H83.7711L87.2559 20.9483V19.3197H83.7711V17.4753H87.2559V15.4466H83.7711V13.6022H87.2559V11.4858H83.7711V9.69054ZM93.91 8.46737V25.3935H95.9059V10.4241H99.507L97.083 15.4466L99.7866 17.7754V21.208H96.5204V23.0911H100.025C100.025 23.0911 101.714 23.2543 101.714 21.573V17.635C101.714 17.635 101.784 16.9646 101.152 16.4346L99.4354 14.964L101.503 10.5627C101.503 10.5627 102.139 8.4235 100.188 8.46737H93.91ZM112.486 10.7575L114.904 8.38489H117.862L120.224 10.7066V13.5285L116.419 9.79758L112.547 13.5864L112.486 10.7575Z" fill="#231F20"/>
</g>
<g clip-path="url(#clip3_622_1506)">
<path d="M113.679 14.3047V12.4354H119.061V14.3047H117.369V16.3074H119.879V18.1152H117.369V23.5511C117.369 23.5511 118.642 23.5212 119.483 23.0895L120.26 24.792C120.26 24.792 119.432 25.4256 117.369 25.3923H112.837V23.5511H115.323V18.1152H112.837V16.3074H115.323V14.3047H113.679Z" fill="#231F20"/>
</g>
<g clip-path="url(#clip4_622_1506)">
<path d="M112.837 19.1349H114.53V22.7263H112.837V19.1349ZM118.165 19.1227H119.851V22.3565H118.165V19.1227ZM123.308 13.6139H128.04V15.109H123.308V13.6139ZM123.308 10.1663H128.04V11.728H123.308V10.1663ZM127.256 21.7203C127.946 21.3855 129.119 20.7037 130.348 19.5258L129.177 18.2621C129.177 18.2621 128.375 19.2226 126.629 20.1988C126.218 18.6319 126.381 17.1141 126.381 17.1141H130.078V10.1015C130.085 8.56437 128.424 8.4855 128.424 8.4855H121.299V23.5518H120.641V25.3904H123.308C125.329 25.3904 125.981 24.5894 125.981 24.5894L125.202 23.0909C124.308 23.6482 123.308 23.5518 123.308 23.5518V17.1141H124.567C124.471 26.2474 130.017 25.3904 130.017 25.3904V23.5518C128.665 23.338 127.802 22.6106 127.256 21.7203ZM147.751 8.4855H157.998V10.4398H147.751V8.4855ZM147.751 14.1205H157.998V16.0555H156.352V23.5518C156.352 23.5518 156.166 25.4202 154.283 25.3904H150.618V23.5518H154.283V16.0555H147.751V14.1205ZM144.74 8C144.74 8 142.578 10.6729 140.225 12.1417L141.215 13.6139C141.215 13.6139 144.033 11.7946 146.149 9.36361L144.74 8ZM146.149 14.0311L144.644 12.7849C144.644 12.7849 141.921 16.4428 139.941 17.7346L141.188 19.1227C141.188 19.1227 141.5 18.8738 141.987 18.4444V25.3904H144.01V16.5217C144.731 15.7803 145.487 14.9267 146.149 14.0311Z" fill="#231F20"/>
</g>
<g clip-path="url(#clip5_622_1506)">
<path d="M8 8.43982H14.2755V30.5303H20.5529V8.43982H26.8231V36.6653H14.2755C14.2755 36.6653 8 36.6022 8 30.5303V8.43982Z" fill="#054A97"/>
</g>
<g clip-path="url(#clip6_622_1506)">
<path d="M26.8047 22.6119L34.0931 15.482L26.8047 8.43982H35.6322L42.9153 15.5767L35.6608 22.6259L26.8047 22.6119Z" fill="#108194"/>
</g>
<g clip-path="url(#clip7_622_1506)">
<path d="M26.8047 36.647L34.1274 29.5817L26.8388 22.6075H35.6633L42.9519 29.6728L35.787 36.647H26.8047Z" fill="#ED1443"/>
</g>
<g clip-path="url(#clip8_622_1506)">
<path d="M55.1219 34.1541C55.1219 34.8955 55.2294 35.4704 55.4335 35.87C55.8078 36.6114 56.5189 36.9724 57.5629 36.9724C58.6125 36.9724 59.3253 36.6114 59.7014 35.87C59.9056 35.4704 60.0112 34.8955 60.0112 34.1541V30.7433H59.157V34.4959C59.157 34.9323 59.0871 35.2828 58.9492 35.544C58.6949 36.0172 58.2113 36.2538 57.5003 36.2538C56.9056 36.2538 56.4813 36.0347 56.2305 35.5948C56.0603 35.3039 55.9762 34.9358 55.9762 34.4959V30.7433H55.1219V34.1541ZM61.3079 36.8112V30.7433H62.2984L65.4344 35.6596V30.7433H66.2278V36.8112H65.2892L62.1102 31.8965V36.8112H61.3079ZM68.5864 30.7433H67.7411V36.8112H68.5864V30.7433ZM70.2556 31.702C69.8401 32.2856 69.6288 32.9886 69.6288 33.8088C69.6288 34.7185 69.8741 35.4704 70.3667 36.068C70.9093 36.6832 71.6615 36.9952 72.6126 36.9952C73.6334 36.9952 74.4215 36.6394 74.9731 35.9313C75.4423 35.3319 75.6787 34.58 75.6787 33.6756C75.6787 32.8342 75.4746 32.1454 75.0627 31.6126C74.5343 30.922 73.7247 30.5803 72.6287 30.5803C71.581 30.5803 70.7912 30.9553 70.2556 31.702ZM71.0257 35.5615C70.6766 35.1058 70.4992 34.5327 70.4992 33.8649C70.4992 33.0236 70.7052 32.3803 71.1099 31.9526C71.5165 31.5215 72.0359 31.3076 72.6824 31.3076C73.3433 31.3076 73.8627 31.5214 74.2441 31.9614C74.6221 32.3925 74.8173 32.9693 74.8173 33.6861C74.8173 34.3592 74.6489 34.9551 74.3211 35.4791C73.9881 35.9962 73.4526 36.2538 72.7111 36.2538C71.932 36.2538 71.3679 36.0277 71.0257 35.5615ZM77.4804 36.8112V31.8965L80.6576 36.8112H81.6015V30.7433H80.7991V35.6596L77.6721 30.7433H76.6763V36.8112H77.4804ZM87.9218 36.8112C88.7386 36.8112 89.3314 36.5781 89.7075 36.1013C89.9583 35.7858 90.0854 35.4336 90.0854 35.0392C90.0854 34.5782 89.9439 34.2084 89.6645 33.9438C89.5105 33.8 89.2705 33.6598 88.9535 33.5459C89.1702 33.4372 89.3368 33.3146 89.4496 33.1936C89.6752 32.9447 89.7827 32.6327 89.7827 32.2471C89.7827 31.9193 89.6914 31.6284 89.5141 31.3795C89.2079 30.9553 88.692 30.7433 87.9649 30.7433H85.2981V36.8112H87.9218ZM86.1274 33.9736H87.7911C88.144 33.9736 88.4269 34.0191 88.6419 34.105C89.043 34.2628 89.2437 34.566 89.2437 35.0006C89.2437 35.2618 89.1737 35.4896 89.0376 35.6684C88.8228 35.9664 88.452 36.1118 87.9398 36.1118H86.1274V33.9736ZM86.1274 31.4286H87.6246C87.9882 31.4286 88.264 31.4706 88.452 31.546C88.7816 31.6792 88.9445 31.9526 88.9445 32.347C88.9445 32.7413 88.7869 33.0113 88.4806 33.1656C88.2837 33.262 88.0079 33.3093 87.6514 33.3093H86.1274V31.4286ZM91.4197 36.8112L92.0895 34.9954H94.5432L95.1718 36.8112H96.0923L93.8429 30.7433H92.8918L90.5582 36.8112H91.4197ZM93.3289 31.6459L94.2727 34.3259H92.3295L93.3289 31.6459ZM97.6595 36.8112V31.8965L100.833 36.8112H101.781V30.7433H100.985V35.6596L97.8529 30.7433H96.8571V36.8112H97.6595ZM103.099 36.8112V30.7433H103.917V33.7001L106.94 30.7433H108.104L105.524 33.1936L108.172 36.8112H107.082L104.909 33.7702L103.917 34.6974V36.8112H103.099ZM111.574 31.702C111.156 32.2856 110.945 32.9886 110.945 33.8088C110.945 34.7185 111.194 35.4704 111.676 36.068C112.225 36.6832 112.972 36.9952 113.927 36.9952C114.949 36.9952 115.736 36.6394 116.291 35.9313C116.761 35.3319 116.992 34.58 116.992 33.6756C116.992 32.8342 116.786 32.1454 116.376 31.6126C115.851 30.922 115.04 30.5803 113.948 30.5803C112.897 30.5803 112.105 30.9553 111.574 31.702ZM112.336 35.5615C111.994 35.1058 111.815 34.5327 111.815 33.8649C111.815 33.0236 112.021 32.3803 112.426 31.9526C112.831 31.5215 113.355 31.3076 113.995 31.3076C114.655 31.3076 115.178 31.5214 115.561 31.9614C115.942 32.3925 116.132 32.9693 116.132 33.6861C116.132 34.3592 115.965 34.9551 115.634 35.4791C115.308 35.9962 114.766 36.2538 114.032 36.2538C113.248 36.2538 112.686 36.0277 112.336 35.5615ZM118.073 36.8112V30.7433H122.375V31.4881H118.915V33.3303H121.96V34.0524H118.915V36.8112H118.073ZM125.156 30.7433H130.191V31.4689H128.1V36.8112H127.248V31.4689H125.156V30.7433ZM131.29 36.8112L131.962 34.9954H134.413L135.041 36.8112H135.962L133.713 30.7433H132.761L130.426 36.8112H131.29ZM133.199 31.6459L134.141 34.3259H132.202L133.199 31.6459ZM137.763 30.7433H136.918V36.8112H137.763V30.7433ZM138.626 30.7433H139.536L140.707 35.6772L142.108 30.7433H143.022L144.422 35.6772L145.591 30.7433H146.512L144.884 36.8112H144.001L142.57 31.7791L141.131 36.8112H140.245L138.626 30.7433ZM147.619 36.8112L148.289 34.9954H150.742L151.373 36.8112H152.289L150.039 30.7433H149.097L146.755 36.8112H147.619ZM149.532 31.6459L150.474 34.3259H148.529L149.532 31.6459ZM153.862 36.8112V31.8965L157.038 36.8112H157.98V30.7433H157.179V35.6596L154.047 30.7433H153.056V36.8112H153.862Z" fill="#231F20"/>
</g>
</g>
<defs>
<clipPath id="clip0_622_1506">
<rect width="151" height="28.9952" fill="white" transform="translate(8 8)"/>
</clipPath>
<clipPath id="clip1_622_1506">
<rect width="6.76311" height="16.9169" fill="white" transform="translate(55.0669 8.47656)"/>
</clipPath>
<clipPath id="clip2_622_1506">
<rect width="58.467" height="17.0086" fill="white" transform="translate(61.7567 8.38489)"/>
</clipPath>
<clipPath id="clip3_622_1506">
<rect width="7.42293" height="12.9581" fill="white" transform="translate(112.837 12.4354)"/>
</clipPath>
<clipPath id="clip4_622_1506">
<rect width="45.1607" height="17.4118" fill="white" transform="translate(112.837 8)"/>
</clipPath>
<clipPath id="clip5_622_1506">
<rect width="18.8231" height="28.2255" fill="white" transform="translate(8 8.43982)"/>
</clipPath>
<clipPath id="clip6_622_1506">
<rect width="16.1105" height="14.186" fill="white" transform="translate(26.8047 8.43982)"/>
</clipPath>
<clipPath id="clip7_622_1506">
<rect width="16.1472" height="14.0394" fill="white" transform="translate(26.8047 22.6075)"/>
</clipPath>
<clipPath id="clip8_622_1506">
<rect width="102.858" height="6.41488" fill="white" transform="translate(55.1219 30.5803)"/>
</clipPath>
</defs>
</svg>
