<svg width="24" height="24" viewBox="0 0 24 24" fill="none" xmlns="http://www.w3.org/2000/svg">
<path d="M10.2942 13.8002C10.803 13.8002 11.2153 14.2032 11.2156 14.7001C11.2156 15.1971 10.8032 15.5999 10.2942 15.5999H6.60835C5.87523 15.6 5.17152 15.8849 4.6531 16.3911C4.1347 16.8973 3.84305 17.5846 3.84291 18.3005V20.1002C3.84291 20.5972 3.43046 21 2.92145 21C2.41262 20.9998 2 20.5971 2 20.1002V18.3005C2.00014 17.1072 2.48516 15.9616 3.34923 15.1178C4.21334 14.274 5.38636 13.8003 6.60835 13.8002H10.2942Z" fill="#108194"/>
<path fill-rule="evenodd" clip-rule="evenodd" d="M18.0839 11.0859C18.2449 10.6147 18.7668 10.3604 19.2495 10.5173C19.7321 10.6746 19.9926 11.1841 19.8317 11.6556L19.795 11.7611C20.0896 11.9647 20.3519 12.2095 20.5738 12.4868L20.7359 12.4246C21.2082 12.2405 21.7447 12.4647 21.9339 12.9257C22.1228 13.387 21.8929 13.9108 21.4208 14.0956L21.3084 14.1388C21.3378 14.3218 21.3538 14.5091 21.3538 14.7001C21.3538 14.8334 21.3456 14.965 21.3311 15.0946L21.37 15.1072C21.8525 15.2647 22.1131 15.7742 21.9522 16.2455C21.7912 16.7168 21.2694 16.9712 20.7867 16.8141L20.6765 16.7782C20.4679 17.0657 20.2172 17.3212 19.9333 17.5378L19.9981 17.696C20.1871 18.1574 19.9574 18.6812 19.4849 18.8659C19.0124 19.0505 18.476 18.8263 18.287 18.3648L18.2427 18.2562C18.0552 18.2849 17.8626 18.3005 17.6669 18.3005C17.5307 18.3004 17.3963 18.2924 17.264 18.2783L17.2521 18.3152C17.091 18.7864 16.5691 19.0408 16.0865 18.8838C15.6038 18.7266 15.3433 18.2171 15.5042 17.7456L15.5399 17.639C15.245 17.435 14.9819 17.1902 14.7599 16.9122L14.6001 16.9755C14.1275 17.16 13.5911 16.9359 13.4021 16.4744C13.2134 16.0131 13.4429 15.4891 13.9152 15.3045L14.0264 15.2602C13.9972 15.0776 13.9811 14.8906 13.9811 14.7001C13.9811 14.5667 13.9893 14.4351 14.0038 14.3055L13.9659 14.2939C13.4835 14.1365 13.2228 13.627 13.3837 13.1557C13.5447 12.6844 14.0666 12.4301 14.5493 12.5871L14.6573 12.6219C14.866 12.3341 15.1173 12.078 15.4016 11.8613L15.3379 11.7052C15.1489 11.2437 15.3785 10.7199 15.851 10.5353C16.3235 10.3507 16.8599 10.5749 17.049 11.0363L17.0922 11.1439C17.2794 11.1153 17.4714 11.1007 17.6669 11.1007C17.8033 11.1007 17.9384 11.1087 18.0709 11.1228L18.0839 11.0859ZM17.6669 12.9004C17.4794 12.9005 17.2983 12.9275 17.1278 12.9784C17.061 13.0294 16.9869 13.0738 16.9042 13.1061C16.8445 13.1294 16.7837 13.1461 16.7227 13.1567C16.1854 13.4712 15.8242 14.0439 15.824 14.7001C15.824 14.8832 15.8529 15.0599 15.905 15.2265C15.9573 15.2918 16.0014 15.365 16.0346 15.4459C16.0582 15.5034 16.0756 15.5623 16.0865 15.621C16.4081 16.1468 16.9944 16.5004 17.6669 16.5008C17.8548 16.5008 18.0362 16.4717 18.207 16.4206C18.2738 16.3698 18.3492 16.3273 18.4317 16.2951C18.4908 16.272 18.5507 16.254 18.611 16.2434C19.1492 15.9288 19.5109 15.3568 19.5109 14.7001C19.5108 14.5176 19.4827 14.3417 19.4309 14.1758C19.3783 14.1101 19.3346 14.0356 19.3013 13.9542C19.2777 13.8965 19.2603 13.838 19.2495 13.7791C18.9274 13.2534 18.3396 12.9004 17.6669 12.9004Z" fill="#108194"/>
<path fill-rule="evenodd" clip-rule="evenodd" d="M9.3738 3C11.9184 3.00029 13.9808 5.01535 13.9811 7.50026C13.9809 9.98525 11.9185 11.9992 9.3738 11.9995C6.82889 11.9995 4.76564 9.98543 4.76544 7.50026C4.76574 5.01518 6.82895 3 9.3738 3ZM9.3738 4.79968C7.84696 4.79968 6.60864 6.00931 6.60835 7.50026C6.60855 8.9913 7.8469 10.1998 9.3738 10.1998C10.9004 10.1995 12.138 8.99112 12.1382 7.50026C12.1379 6.00948 10.9004 4.79997 9.3738 4.79968Z" fill="#108194"/>
</svg>
